<svg xmlns="http://www.w3.org/2000/svg" viewBox="0 0 369 268" width="369" height="268" preserveAspectRatio="xMidYMid meet" style="width: 100%; height: 100%; transform: translate3d(0px, 0px, 0px); content-visibility: visible;"><defs><clipPath id="__lottie_element_2"><rect width="369" height="268" x="0" y="0"></rect></clipPath><mask id="__lottie_element_3" mask-type="alpha"><g class="green" transform="matrix(0.3607800006866455,0,0,0.3607800006866455,-23.055679321289062,44.93781280517578)" opacity="1" style="display: block;"><g opacity="1" transform="matrix(1,0,0,1,569.2379760742188,237.44500732421875)"><path fill="rgb(101,183,103)" fill-opacity="1" d=" M0,-240.53500366210938 C132.7512664794922,-240.53500366210938 240.53500366210938,-132.7512664794922 240.53500366210938,0 C240.53500366210938,132.7512664794922 132.7512664794922,240.53500366210938 0,240.53500366210938 C-132.7512664794922,240.53500366210938 -240.53500366210938,132.7512664794922 -240.53500366210938,0 C-240.53500366210938,-132.7512664794922 -132.7512664794922,-240.53500366210938 0,-240.53500366210938z"></path><path stroke-linecap="butt" stroke-linejoin="miter" fill-opacity="0" stroke-miterlimit="4" stroke="rgb(31,33,35)" stroke-opacity="1" stroke-width="0" d=" M0,-240.53500366210938 C132.7512664794922,-240.53500366210938 240.53500366210938,-132.7512664794922 240.53500366210938,0 C240.53500366210938,132.7512664794922 132.7512664794922,240.53500366210938 0,240.53500366210938 C-132.7512664794922,240.53500366210938 -240.53500366210938,132.7512664794922 -240.53500366210938,0 C-240.53500366210938,-132.7512664794922 -132.7512664794922,-240.53500366210938 0,-240.53500366210938z"></path></g></g></mask><mask id="__lottie_element_7" mask-type="alpha"><g class="green" transform="matrix(0.3607800006866455,0,0,0.3607800006866455,-23.055679321289062,44.93781280517578)" opacity="1" style="display: block;"><g opacity="1" transform="matrix(1,0,0,1,569.2379760742188,237.44500732421875)"><path fill="rgb(101,183,103)" fill-opacity="1" d=" M0,-240.53500366210938 C132.7512664794922,-240.53500366210938 240.53500366210938,-132.7512664794922 240.53500366210938,0 C240.53500366210938,132.7512664794922 132.7512664794922,240.53500366210938 0,240.53500366210938 C-132.7512664794922,240.53500366210938 -240.53500366210938,132.7512664794922 -240.53500366210938,0 C-240.53500366210938,-132.7512664794922 -132.7512664794922,-240.53500366210938 0,-240.53500366210938z"></path><path stroke-linecap="butt" stroke-linejoin="miter" fill-opacity="0" stroke-miterlimit="4" stroke="rgb(31,33,35)" stroke-opacity="1" stroke-width="0" d=" M0,-240.53500366210938 C132.7512664794922,-240.53500366210938 240.53500366210938,-132.7512664794922 240.53500366210938,0 C240.53500366210938,132.7512664794922 132.7512664794922,240.53500366210938 0,240.53500366210938 C-132.7512664794922,240.53500366210938 -240.53500366210938,132.7512664794922 -240.53500366210938,0 C-240.53500366210938,-132.7512664794922 -132.7512664794922,-240.53500366210938 0,-240.53500366210938z"></path></g></g></mask></defs><g clip-path="url(#__lottie_element_2)"><g class="white" transform="matrix(1,0,0,1,-150,86)" opacity="0.99" style="display: block;"><g opacity="1" transform="matrix(1,0,0,1,333.9849853515625,44.422000885009766)"><path fill="rgb(255,255,255)" fill-opacity="1" d=" M166.0854949951172,-117.33149719238281 C166.0854949951172,-117.33149719238281 166.0854949951172,117.33149719238281 166.0854949951172,117.33149719238281 C166.0854949951172,123.95429992675781 160.7082977294922,129.3314971923828 154.0854949951172,129.3314971923828 C154.0854949951172,129.3314971923828 -154.0854949951172,129.3314971923828 -154.0854949951172,129.3314971923828 C-160.7082977294922,129.3314971923828 -166.0854949951172,123.95429992675781 -166.0854949951172,117.33149719238281 C-166.0854949951172,117.33149719238281 -166.0854949951172,-117.33149719238281 -166.0854949951172,-117.33149719238281 C-166.0854949951172,-123.95429992675781 -160.7082977294922,-129.3314971923828 -154.0854949951172,-129.3314971923828 C-154.0854949951172,-129.3314971923828 154.0854949951172,-129.3314971923828 154.0854949951172,-129.3314971923828 C160.7082977294922,-129.3314971923828 166.0854949951172,-123.95429992675781 166.0854949951172,-117.33149719238281z"></path><path stroke-linecap="butt" stroke-linejoin="miter" fill-opacity="0" stroke-miterlimit="4" stroke="rgb(32,33,36)" stroke-opacity="1" stroke-width="2" d=" M166.0854949951172,-117.33149719238281 C166.0854949951172,-117.33149719238281 166.0854949951172,117.33149719238281 166.0854949951172,117.33149719238281 C166.0854949951172,123.95429992675781 160.7082977294922,129.3314971923828 154.0854949951172,129.3314971923828 C154.0854949951172,129.3314971923828 -154.0854949951172,129.3314971923828 -154.0854949951172,129.3314971923828 C-160.7082977294922,129.3314971923828 -166.0854949951172,123.95429992675781 -166.0854949951172,117.33149719238281 C-166.0854949951172,117.33149719238281 -166.0854949951172,-117.33149719238281 -166.0854949951172,-117.33149719238281 C-166.0854949951172,-123.95429992675781 -160.7082977294922,-129.3314971923828 -154.0854949951172,-129.3314971923828 C-154.0854949951172,-129.3314971923828 154.0854949951172,-129.3314971923828 154.0854949951172,-129.3314971923828 C160.7082977294922,-129.3314971923828 166.0854949951172,-123.95429992675781 166.0854949951172,-117.33149719238281z"></path></g><g opacity="1" transform="matrix(0.9220600128173828,0,0,0.8918799757957458,332.3280029296875,-77.9219970703125)"><path fill="rgb(32,33,36)" fill-opacity="1" d=" M0,-3.7035000324249268 C2.043961763381958,-3.7035000324249268 3.7035000324249268,-2.043961763381958 3.7035000324249268,0 C3.7035000324249268,2.043961763381958 2.043961763381958,3.7035000324249268 0,3.7035000324249268 C-2.043961763381958,3.7035000324249268 -3.7035000324249268,2.043961763381958 -3.7035000324249268,0 C-3.7035000324249268,-2.043961763381958 -2.043961763381958,-3.7035000324249268 0,-3.7035000324249268z"></path><path stroke-linecap="butt" stroke-linejoin="miter" fill-opacity="0" stroke-miterlimit="4" stroke="rgb(32,33,36)" stroke-opacity="1" stroke-width="0" d=" M0,-3.7035000324249268 C2.043961763381958,-3.7035000324249268 3.7035000324249268,-2.043961763381958 3.7035000324249268,0 C3.7035000324249268,2.043961763381958 2.043961763381958,3.7035000324249268 0,3.7035000324249268 C-2.043961763381958,3.7035000324249268 -3.7035000324249268,2.043961763381958 -3.7035000324249268,0 C-3.7035000324249268,-2.043961763381958 -2.043961763381958,-3.7035000324249268 0,-3.7035000324249268z"></path></g></g><g class="yellow" transform="matrix(1,0,0,1,-150,88.5)" opacity="1" style="display: block;"><g opacity="1" transform="matrix(1,0,0,1,333.9849853515625,44.422000885009766)"><path fill="rgb(246,189,65)" fill-opacity="1" d=" M157.42550659179688,-109.98149871826172 C157.42550659179688,-109.98149871826172 157.42550659179688,109.98149871826172 157.42550659179688,109.98149871826172 C157.42550659179688,113.84479522705078 154.28880310058594,116.98149871826172 150.42550659179688,116.98149871826172 C150.42550659179688,116.98149871826172 -150.42550659179688,116.98149871826172 -150.42550659179688,116.98149871826172 C-154.28880310058594,116.98149871826172 -157.42550659179688,113.84479522705078 -157.42550659179688,109.98149871826172 C-157.42550659179688,109.98149871826172 -157.42550659179688,-109.98149871826172 -157.42550659179688,-109.98149871826172 C-157.42550659179688,-113.84479522705078 -154.28880310058594,-116.98149871826172 -150.42550659179688,-116.98149871826172 C-150.42550659179688,-116.98149871826172 150.42550659179688,-116.98149871826172 150.42550659179688,-116.98149871826172 C154.28880310058594,-116.98149871826172 157.42550659179688,-113.84479522705078 157.42550659179688,-109.98149871826172z"></path><path stroke-linecap="butt" stroke-linejoin="miter" fill-opacity="0" stroke-miterlimit="4" stroke="rgb(32,33,36)" stroke-opacity="1" stroke-width="2" d=" M157.42550659179688,-109.98149871826172 C157.42550659179688,-109.98149871826172 157.42550659179688,109.98149871826172 157.42550659179688,109.98149871826172 C157.42550659179688,113.84479522705078 154.28880310058594,116.98149871826172 150.42550659179688,116.98149871826172 C150.42550659179688,116.98149871826172 -150.42550659179688,116.98149871826172 -150.42550659179688,116.98149871826172 C-154.28880310058594,116.98149871826172 -157.42550659179688,113.84479522705078 -157.42550659179688,109.98149871826172 C-157.42550659179688,109.98149871826172 -157.42550659179688,-109.98149871826172 -157.42550659179688,-109.98149871826172 C-157.42550659179688,-113.84479522705078 -154.28880310058594,-116.98149871826172 -150.42550659179688,-116.98149871826172 C-150.42550659179688,-116.98149871826172 150.42550659179688,-116.98149871826172 150.42550659179688,-116.98149871826172 C154.28880310058594,-116.98149871826172 157.42550659179688,-113.84479522705078 157.42550659179688,-109.98149871826172z"></path></g></g><g class="gray" transform="matrix(1,0,0,1,-149.75,82.25)" opacity="1" style="display: block;"><g opacity="1" transform="matrix(1,0,0,1,334.1830139160156,142.8509979248047)"><path fill="rgb(227,227,227)" fill-opacity="1" d=" M183.71499633789062,15.694999694824219 C183.71499633789062,15.694999694824219 183.73300170898438,26.43000030517578 183.73300170898438,26.43000030517578 C183.73300170898438,35.266998291015625 176.57000732421875,42.43000030517578 167.73300170898438,42.43000030517578 C167.73300170898438,42.43000030517578 -167.73300170898438,42.43000030517578 -167.73300170898438,42.43000030517578 C-176.57000732421875,42.43000030517578 -183.73300170898438,35.266998291015625 -183.73300170898438,26.43000030517578 C-183.73300170898438,26.43000030517578 -183.75,15.694999694824219 -183.75,15.694999694824219 C-183.75,15.694999694824219 183.71499633789062,15.694999694824219 183.71499633789062,15.694999694824219z"></path><path stroke-linecap="butt" stroke-linejoin="miter" fill-opacity="0" stroke-miterlimit="4" stroke="rgb(32,33,36)" stroke-opacity="1" stroke-width="2" d=" M183.71499633789062,15.694999694824219 C183.71499633789062,15.694999694824219 183.73300170898438,26.43000030517578 183.73300170898438,26.43000030517578 C183.73300170898438,35.266998291015625 176.57000732421875,42.43000030517578 167.73300170898438,42.43000030517578 C167.73300170898438,42.43000030517578 -167.73300170898438,42.43000030517578 -167.73300170898438,42.43000030517578 C-176.57000732421875,42.43000030517578 -183.73300170898438,35.266998291015625 -183.73300170898438,26.43000030517578 C-183.73300170898438,26.43000030517578 -183.75,15.694999694824219 -183.75,15.694999694824219 C-183.75,15.694999694824219 183.71499633789062,15.694999694824219 183.71499633789062,15.694999694824219z"></path></g></g><g class="white" transform="matrix(1,0,0,1,-150,82.375)" opacity="1" style="display: block;"><g opacity="1" transform="matrix(1,0,0,1,334.4469909667969,151.35499572753906)"><path fill="rgb(255,255,255)" fill-opacity="1" d=" M34.071998596191406,7.269999980926514 C34.071998596191406,12.793000221252441 29.594999313354492,17.270000457763672 24.07200050354004,17.270000457763672 C24.07200050354004,17.270000457763672 -24.07200050354004,17.270000457763672 -24.07200050354004,17.270000457763672 C-29.594999313354492,17.270000457763672 -34.071998596191406,12.793000221252441 -34.071998596191406,7.269999980926514 C-34.071998596191406,7.269999980926514 34.071998596191406,7.269999980926514 34.071998596191406,7.269999980926514z"></path><path stroke-linecap="butt" stroke-linejoin="miter" fill-opacity="0" stroke-miterlimit="4" stroke="rgb(32,33,36)" stroke-opacity="1" stroke-width="2" d=" M34.071998596191406,7.269999980926514 C34.071998596191406,12.793000221252441 29.594999313354492,17.270000457763672 24.07200050354004,17.270000457763672 C24.07200050354004,17.270000457763672 -24.07200050354004,17.270000457763672 -24.07200050354004,17.270000457763672 C-29.594999313354492,17.270000457763672 -34.071998596191406,12.793000221252441 -34.071998596191406,7.269999980926514 C-34.071998596191406,7.269999980926514 34.071998596191406,7.269999980926514 34.071998596191406,7.269999980926514z"></path></g></g><g class="green" transform="matrix(0.36278000473976135,0,0,0.36278000473976135,-24.19415283203125,43.943695068359375)" opacity="1" style="display: block;"><g opacity="1" transform="matrix(1,0,0,1,569.2379760742188,237.44500732421875)"><path fill="rgb(101,184,103)" fill-opacity="1" d=" M0,-240.53500366210938 C132.7512664794922,-240.53500366210938 240.53500366210938,-132.7512664794922 240.53500366210938,0 C240.53500366210938,132.7512664794922 132.7512664794922,240.53500366210938 0,240.53500366210938 C-132.7512664794922,240.53500366210938 -240.53500366210938,132.7512664794922 -240.53500366210938,0 C-240.53500366210938,-132.7512664794922 -132.7512664794922,-240.53500366210938 0,-240.53500366210938z"></path><path stroke-linecap="butt" stroke-linejoin="miter" fill-opacity="0" stroke-miterlimit="4" stroke="rgb(31,33,35)" stroke-opacity="1" stroke-width="5" d=" M0,-240.53500366210938 C132.7512664794922,-240.53500366210938 240.53500366210938,-132.7512664794922 240.53500366210938,0 C240.53500366210938,132.7512664794922 132.7512664794922,240.53500366210938 0,240.53500366210938 C-132.7512664794922,240.53500366210938 -240.53500366210938,132.7512664794922 -240.53500366210938,0 C-240.53500366210938,-132.7512664794922 -132.7512664794922,-240.53500366210938 0,-240.53500366210938z"></path></g></g><g class="black" transform="matrix(0.37400001287460327,0,0,0.3803600072860718,-30.954999923706055,43.994998931884766)" opacity="1" style="display: block;"><g opacity="1" transform="matrix(1,0,0,1,0,0)"><path stroke-linecap="butt" stroke-linejoin="miter" fill-opacity="0" stroke-miterlimit="4" stroke="rgb(31,33,35)" stroke-opacity="1" stroke-width="5" d=" M569.5,-3 C569.5,-3 583.56298828125,18.796388626098633 598.9591064453125,51.1413688659668 C608.4427490234375,77.86068725585938 616.1405639648438,93.9884033203125 625.6409912109375,143.38600158691406 C634.1177368164062,197.10433959960938 633.8074340820312,228.62789916992188 633.8074340820312,228.62789916992188"></path></g></g><g class="black" style="display: none;" transform="matrix(0.37400001287460327,0,0,0.3803600072860718,-30.954999923706055,43.994998931884766)" opacity="1"><g opacity="1" transform="matrix(1,0,0,1,0,0)"><path stroke-linecap="butt" stroke-linejoin="miter" fill-opacity="0" stroke-miterlimit="4" stroke="rgb(31,33,35)" stroke-opacity="1" stroke-width="5" d=" M569.5,-3 C569.5,-3 633.8695678710938,-7.8938212394714355 702.396728515625,38.243412017822266 C727.2197265625,54.95965576171875 762.4768676757812,84.18931579589844 784.2805786132812,136.00479125976562 C804.9222412109375,196.1316680908203 803.5884399414062,228.99696350097656 803.5884399414062,228.99696350097656"></path></g></g><g class="black" transform="matrix(0.37400001287460327,0,0,0.3803600072860718,-30.954999923706055,43.994998931884766)" opacity="1" style="display: block;"><g opacity="1" transform="matrix(1,0,0,1,0,0)"><path stroke-linecap="butt" stroke-linejoin="miter" fill-opacity="0" stroke-miterlimit="4" stroke="rgb(31,33,35)" stroke-opacity="1" stroke-width="5" d=" M569.5,-3 C569.5,-3 606.3452758789062,12.748366355895996 642.6801147460938,49.32334518432617 C665.1637573242188,71.76141357421875 684.46630859375,90.03478240966797 700.48583984375,139.0711212158203 C715.6641235351562,191.38369750976562 715.6817626953125,228.5 715.6817626953125,228.5"></path></g></g><g class="black" style="display: none;" transform="matrix(0.37400001287460327,0,0,0.3803600072860718,-30.954999923706055,43.994998931884766)" opacity="1"><g opacity="1" transform="matrix(1,0,0,1,0,0)"><path stroke-linecap="butt" stroke-linejoin="miter" fill-opacity="0" stroke-miterlimit="4" stroke="rgb(31,33,35)" stroke-opacity="1" stroke-width="5" d=" M569.5,-3 C569.5,-3 632.9501953125,-7.725503444671631 700.5222778320312,38.18745803833008 C724.9329833984375,55.090187072753906 756.4215087890625,85.61371612548828 777.880859375,137.41152954101562 C798.21484375,197.711181640625 800.182373046875,229 800.182373046875,229"></path></g></g><g class="black" style="display: none;" transform="matrix(0.37400001287460327,0,0,0.3803600072860718,-30.954999923706055,43.994998931884766)" opacity="1"><g opacity="1" transform="matrix(1,0,0,1,0,0)"><path stroke-linecap="butt" stroke-linejoin="miter" fill-opacity="0" stroke-miterlimit="4" stroke="rgb(31,33,35)" stroke-opacity="1" stroke-width="5" d=" M569.5,-3 C569.5,-3 522.427978515625,7.936595916748047 489.447998046875,35.72639083862305 C467.52679443359375,55.25972366333008 443.26080322265625,74.92218780517578 424.137939453125,117.81661224365234 C396.01568603515625,183.28201293945312 398.1455078125,229 398.1455078125,229"></path></g></g><g class="black" transform="matrix(0.37400001287460327,0,0,0.3803600072860718,-30.954999923706055,43.994998931884766)" opacity="1" style="display: block;"><g opacity="1" transform="matrix(1,0,0,1,0,0)"><path stroke-linecap="butt" stroke-linejoin="miter" fill-opacity="0" stroke-miterlimit="4" stroke="rgb(31,33,35)" stroke-opacity="1" stroke-width="5" d=" M569.5,-3 C569.5,-3 628.5003662109375,-3.523552417755127 690.2848510742188,40.48298645019531 C715.3555908203125,58.36172103881836 744.9195556640625,86.26738739013672 765.5162963867188,137.36138916015625 C785.1173706054688,195.8373260498047 786.6484985351562,228.87210083007812 786.6484985351562,228.87210083007812"></path></g></g><g class="black" style="display: none;" transform="matrix(0.37400001287460327,0,0,0.3803600072860718,-30.954999923706055,43.994998931884766)" opacity="1"><g opacity="1" transform="matrix(1,0,0,1,0,0)"><path stroke-linecap="butt" stroke-linejoin="miter" fill-opacity="0" stroke-miterlimit="4" stroke="rgb(31,33,35)" stroke-opacity="1" stroke-width="5" d=" M569.5,-3 C569.5,-3 633.4431762695312,-7.6309099197387695 701.5482788085938,38.40211486816406 C726.218505859375,55.1993293762207 757.9417114257812,85.61000061035156 779.6687622070312,137.41209411621094 C800.2216796875,197.4388885498047 802.192138671875,228.993896484375 802.192138671875,228.993896484375"></path></g></g><g class="black" style="display: none;" transform="matrix(0.37400001287460327,0,0,0.3803600072860718,-30.954999923706055,43.994998931884766)" opacity="1"><g opacity="1" transform="matrix(1,0,0,1,0,0)"><path stroke-linecap="butt" stroke-linejoin="miter" fill-opacity="0" stroke-miterlimit="4" stroke="rgb(31,33,35)" stroke-opacity="1" stroke-width="5" d=" M569.5,-3 C569.5,-3 554.8027954101562,13.466629028320312 538.89013671875,38.033348083496094 C523.94482421875,61.15159225463867 504.6268615722656,95.37561798095703 492.41790771484375,142.1848602294922 C478.5613098144531,209.66065979003906 481.4933776855469,229 481.4933776855469,229"></path></g></g><g class="black" transform="matrix(0.37400001287460327,0,0,0.3803600072860718,-30.954999923706055,43.994998931884766)" opacity="1" style="display: none;"><g opacity="1" transform="matrix(1,0,0,1,0,0)"><path stroke-linecap="butt" stroke-linejoin="miter" fill-opacity="0" stroke-miterlimit="4" stroke="rgb(31,33,35)" stroke-opacity="1" stroke-width="5" d=" M569.5,-3 C569.5,-3 633.908935546875,-7.925867557525635 702.4855346679688,38.22698974609375 C727.3067626953125,54.93470764160156 759.258544921875,85.51271057128906 781.071044921875,137.33346557617188 C801.7203979492188,197.4724578857422 803.712646484375,228.9978790283203 803.712646484375,228.9978790283203"></path></g></g><g class="black" style="display: block;" transform="matrix(0.37400001287460327,0,0,0.3803600072860718,-30.954999923706055,43.994998931884766)" opacity="1"><g opacity="1" transform="matrix(1,0,0,1,0,0)"><path stroke-linecap="butt" stroke-linejoin="miter" fill-opacity="0" stroke-miterlimit="4" stroke="rgb(31,33,35)" stroke-opacity="1" stroke-width="5" d=" M569.5,-3 C569.5,-3 519.4708251953125,5.334325790405273 482.922607421875,32.828407287597656 C459.3506774902344,51.51350784301758 433.4431457519531,71.7284927368164 412.6839904785156,113.69635009765625 C381.1858825683594,178.6859893798828 383.5964660644531,229 383.5964660644531,229"></path></g></g><g class="black" style="display: none;" transform="matrix(0.37400001287460327,0,0,0.3803600072860718,-30.954999923706055,43.994998931884766)" opacity="1"><g opacity="1" transform="matrix(1,0,0,1,0,0)"><path stroke-linecap="butt" stroke-linejoin="miter" fill-opacity="0" stroke-miterlimit="4" stroke="rgb(31,33,35)" stroke-opacity="1" stroke-width="5" d=" M569.5,-3 C569.5,-3 569.289794921875,8.924927711486816 569.0089721679688,38.09371566772461 C568.7286987304688,67.95866394042969 569.6055908203125,92.51820373535156 568.3718872070312,142.1680145263672 C568.454345703125,210.49588012695312 568.47216796875,229 568.47216796875,229"></path></g></g><g class="black" transform="matrix(0.37400001287460327,0,0,0.3803600072860718,-30.954999923706055,43.994998931884766)" opacity="1" style="display: none;"><g opacity="1" transform="matrix(1,0,0,1,0,0)"><path stroke-linecap="butt" stroke-linejoin="miter" fill-opacity="0" stroke-miterlimit="4" stroke="rgb(31,33,35)" stroke-opacity="1" stroke-width="5" d=" M569.5,-3 C569.5,-3 634,-8 702.6909790039062,38.18899917602539 C727.5079956054688,54.87699890136719 759.5,85.5 781.3330078125,137.33299255371094 C802,197.5 804,229 804,229"></path></g></g><g class="black" style="display: block;" transform="matrix(0.37400001287460327,0,0,0.3803600072860718,-30.954999923706055,43.994998931884766)" opacity="1"><g opacity="1" transform="matrix(1,0,0,1,0,0)"><path stroke-linecap="butt" stroke-linejoin="miter" fill-opacity="0" stroke-miterlimit="4" stroke="rgb(31,33,35)" stroke-opacity="1" stroke-width="5" d=" M569.5,-3 C569.5,-3 546.6865844726562,12.093116760253906 526.507568359375,37.471458435058594 C509.8196105957031,59.69416809082031 489.26849365234375,90.25616455078125 475.3323974609375,136.08746337890625 C457.91217041015625,203.06105041503906 460.6409606933594,229 460.6409606933594,229"></path></g></g><g class="black" style="display: none;" transform="matrix(0.37400001287460327,0,0,0.3803600072860718,-30.954999923706055,43.994998931884766)" opacity="1"><g opacity="1" transform="matrix(1,0,0,1,0,0)"><path stroke-linecap="butt" stroke-linejoin="miter" fill-opacity="0" stroke-miterlimit="4" stroke="rgb(31,33,35)" stroke-opacity="1" stroke-width="5" d=" M569.5,-3 C569.5,-3 588.3233642578125,22.1182918548584 608.9483032226562,55.51962661743164 C621.6784057617188,81.16960906982422 631.6238403320312,94.48786163330078 644.703857421875,143.79505920410156 C655.9691162109375,192.6092071533203 655.5546264648438,228.50303649902344 655.5546264648438,228.50303649902344"></path></g></g><g class="black" transform="matrix(0.37400001287460327,0,0,0.3803600072860718,-30.954999923706055,43.994998931884766)" opacity="1" style="display: none;"><g opacity="1" transform="matrix(1,0,0,1,0,0)"><path stroke-linecap="butt" stroke-linejoin="miter" fill-opacity="0" stroke-miterlimit="4" stroke="rgb(31,33,35)" stroke-opacity="1" stroke-width="5" d=" M569.5,-3 C569.5,-3 628.937255859375,-9.274876594543457 697.2642211914062,36.84822082519531 C721.9138793945312,53.54648971557617 759.3670654296875,80.46733856201172 781.053466796875,132.2683868408203 C801.2301025390625,175.55519104003906 801.547607421875,234.32884216308594 801.547607421875,234.32884216308594"></path></g></g><g class="black" style="display: block;" transform="matrix(0.37400001287460327,0,0,0.3803600072860718,-30.954999923706055,43.994998931884766)" opacity="1"><g opacity="1" transform="matrix(1,0,0,1,0,0)"><path stroke-linecap="butt" stroke-linejoin="miter" fill-opacity="0" stroke-miterlimit="4" stroke="rgb(31,33,35)" stroke-opacity="1" stroke-width="5" d=" M569.5,-3 C569.5,-3 565.6994018554688,10.074433326721191 561.51708984375,38.08197784423828 C557.5628051757812,66.25725555419922 553.3731689453125,93.26738739013672 549.3924560546875,142.20945739746094 C545.994384765625,210.32630920410156 546.7456665039062,229 546.7456665039062,229"></path></g></g><g class="black" style="display: none;" transform="matrix(0.37400001287460327,0,0,0.3803600072860718,-30.954999923706055,43.994998931884766)" opacity="1"><g opacity="1" transform="matrix(1,0,0,1,0,0)"><path stroke-linecap="butt" stroke-linejoin="miter" fill-opacity="0" stroke-miterlimit="4" stroke="rgb(31,33,35)" stroke-opacity="1" stroke-width="5" d=" M569.5,-3 C569.5,-3 612.35400390625,9.577049255371094 653.91796875,47.2083854675293 C679.6480712890625,68.57736206054688 702.072265625,88.53640747070312 719.0490112304688,137.4825897216797 C735.5176391601562,191.00909423828125 735.6810913085938,228.5 735.6810913085938,228.5"></path></g></g><g class="black" transform="matrix(0.37400001287460327,0,0,0.37400001287460327,-30.954999923706055,43.97800064086914)" opacity="1" style="display: block;"><g opacity="1" transform="matrix(1,0,0,1,0,0)"><path stroke-linecap="butt" stroke-linejoin="miter" fill-opacity="0" stroke-miterlimit="4" stroke="rgb(31,33,35)" stroke-opacity="1" stroke-width="5" d=" M432.50299072265625,44.50299835205078 C432.50299072265625,44.50299835205078 489,88.5 569,88.5 C649,88.5 707.9130249023438,43.92100143432617 707.9130249023438,43.92100143432617"></path></g></g><g class="black" transform="matrix(0.37400001287460327,0,0,0.37400001287460327,-30.954999923706055,43.97800064086914)" opacity="1" style="display: block;"><g opacity="1" transform="matrix(1,-0.00003490658491500653,0.00003490658491500653,1,0,0)"><path stroke-linecap="butt" stroke-linejoin="miter" fill-opacity="0" stroke-miterlimit="4" stroke="rgb(31,33,35)" stroke-opacity="1" stroke-width="5" d=" M363,127 C363,127 453.8529968261719,177 576.85302734375,176 C699.85302734375,175 779.0399780273438,128.81100463867188 779.0399780273438,128.81100463867188"></path></g></g><g class="black" transform="matrix(0.37400001287460327,0,0,-0.3706299960613251,-30.954999923706055,215.9770050048828)" opacity="1" style="display: block;"><g opacity="1" transform="matrix(1,0,0,1,0,0)"><path stroke-linecap="butt" stroke-linejoin="miter" fill-opacity="0" stroke-miterlimit="4" stroke="rgb(31,33,35)" stroke-opacity="1" stroke-width="5" d=" M569.5,-3 C569.5,-3 583.56298828125,18.796388626098633 598.9591064453125,51.1413688659668 C608.4427490234375,77.86068725585938 616.1405639648438,93.9884033203125 625.6409912109375,143.38600158691406 C634.1177368164062,197.10433959960938 633.8074340820312,228.62789916992188 633.8074340820312,228.62789916992188"></path></g></g><g class="black" style="display: none;" transform="matrix(0.37400001287460327,0,0,-0.3706299960613251,-30.954999923706055,215.9770050048828)" opacity="1"><g opacity="1" transform="matrix(1,0,0,1,0,0)"><path stroke-linecap="butt" stroke-linejoin="miter" fill-opacity="0" stroke-miterlimit="4" stroke="rgb(31,33,35)" stroke-opacity="1" stroke-width="5" d=" M569.5,-3 C569.5,-3 633.8695678710938,-7.8938212394714355 702.396728515625,38.243412017822266 C727.2197265625,54.95965576171875 762.4768676757812,84.18931579589844 784.2805786132812,136.00479125976562 C804.9222412109375,196.1316680908203 803.5884399414062,228.99696350097656 803.5884399414062,228.99696350097656"></path></g></g><g class="black" transform="matrix(0.37400001287460327,0,0,-0.3706299960613251,-30.954999923706055,215.9770050048828)" opacity="1" style="display: block;"><g opacity="1" transform="matrix(1,0,0,1,0,0)"><path stroke-linecap="butt" stroke-linejoin="miter" fill-opacity="0" stroke-miterlimit="4" stroke="rgb(31,33,35)" stroke-opacity="1" stroke-width="5" d=" M569.5,-3 C569.5,-3 606.3452758789062,12.748366355895996 642.6801147460938,49.32334518432617 C665.1637573242188,71.76141357421875 684.46630859375,90.03478240966797 700.48583984375,139.0711212158203 C715.6641235351562,191.38369750976562 715.6817626953125,228.5 715.6817626953125,228.5"></path></g></g><g class="black" style="display: none;" transform="matrix(0.37400001287460327,0,0,-0.3706299960613251,-30.954999923706055,215.9770050048828)" opacity="1"><g opacity="1" transform="matrix(1,0,0,1,0,0)"><path stroke-linecap="butt" stroke-linejoin="miter" fill-opacity="0" stroke-miterlimit="4" stroke="rgb(31,33,35)" stroke-opacity="1" stroke-width="5" d=" M569.5,-3 C569.5,-3 632.9501953125,-7.725503444671631 700.5222778320312,38.18745803833008 C724.9329833984375,55.090187072753906 756.4215087890625,85.61371612548828 777.880859375,137.41152954101562 C798.21484375,197.711181640625 800.182373046875,229 800.182373046875,229"></path></g></g><g class="black" style="display: none;" transform="matrix(0.37400001287460327,0,0,-0.3706299960613251,-30.954999923706055,215.9770050048828)" opacity="1"><g opacity="1" transform="matrix(1,0,0,1,0,0)"><path stroke-linecap="butt" stroke-linejoin="miter" fill-opacity="0" stroke-miterlimit="4" stroke="rgb(31,33,35)" stroke-opacity="1" stroke-width="5" d=" M569.5,-3 C569.5,-3 522.427978515625,7.936595916748047 489.447998046875,35.72639083862305 C467.52679443359375,55.25972366333008 443.26080322265625,74.92218780517578 424.137939453125,117.81661224365234 C396.01568603515625,183.28201293945312 398.1455078125,229 398.1455078125,229"></path></g></g><g class="black" transform="matrix(0.37400001287460327,0,0,-0.3706299960613251,-30.954999923706055,215.9770050048828)" opacity="1" style="display: block;"><g opacity="1" transform="matrix(1,0,0,1,0,0)"><path stroke-linecap="butt" stroke-linejoin="miter" fill-opacity="0" stroke-miterlimit="4" stroke="rgb(31,33,35)" stroke-opacity="1" stroke-width="5" d=" M569.5,-3 C569.5,-3 628.5003662109375,-3.523552417755127 690.2848510742188,40.48298645019531 C715.3555908203125,58.36172103881836 744.9195556640625,86.26738739013672 765.5162963867188,137.36138916015625 C785.1173706054688,195.8373260498047 786.6484985351562,228.87210083007812 786.6484985351562,228.87210083007812"></path></g></g><g class="black" style="display: none;" transform="matrix(0.37400001287460327,0,0,-0.3706299960613251,-30.954999923706055,215.9770050048828)" opacity="1"><g opacity="1" transform="matrix(1,0,0,1,0,0)"><path stroke-linecap="butt" stroke-linejoin="miter" fill-opacity="0" stroke-miterlimit="4" stroke="rgb(31,33,35)" stroke-opacity="1" stroke-width="5" d=" M569.5,-3 C569.5,-3 633.4431762695312,-7.6309099197387695 701.5482788085938,38.40211486816406 C726.218505859375,55.1993293762207 757.9417114257812,85.61000061035156 779.6687622070312,137.41209411621094 C800.2216796875,197.4388885498047 802.192138671875,228.993896484375 802.192138671875,228.993896484375"></path></g></g><g class="black" style="display: none;" transform="matrix(0.37400001287460327,0,0,-0.3706299960613251,-30.954999923706055,215.9770050048828)" opacity="1"><g opacity="1" transform="matrix(1,0,0,1,0,0)"><path stroke-linecap="butt" stroke-linejoin="miter" fill-opacity="0" stroke-miterlimit="4" stroke="rgb(31,33,35)" stroke-opacity="1" stroke-width="5" d=" M569.5,-3 C569.5,-3 554.8027954101562,13.466629028320312 538.89013671875,38.033348083496094 C523.94482421875,61.15159225463867 504.6268615722656,95.37561798095703 492.41790771484375,142.1848602294922 C478.5613098144531,209.66065979003906 481.4933776855469,229 481.4933776855469,229"></path></g></g><g class="black" transform="matrix(0.37400001287460327,0,0,-0.3706299960613251,-30.954999923706055,215.9770050048828)" opacity="1" style="display: none;"><g opacity="1" transform="matrix(1,0,0,1,0,0)"><path stroke-linecap="butt" stroke-linejoin="miter" fill-opacity="0" stroke-miterlimit="4" stroke="rgb(31,33,35)" stroke-opacity="1" stroke-width="5" d=" M569.5,-3 C569.5,-3 633.908935546875,-7.925867557525635 702.4855346679688,38.22698974609375 C727.3067626953125,54.93470764160156 759.258544921875,85.51271057128906 781.071044921875,137.33346557617188 C801.7203979492188,197.4724578857422 803.712646484375,228.9978790283203 803.712646484375,228.9978790283203"></path></g></g><g class="black" style="display: block;" transform="matrix(0.37400001287460327,0,0,-0.3706299960613251,-30.954999923706055,215.9770050048828)" opacity="1"><g opacity="1" transform="matrix(1,0,0,1,0,0)"><path stroke-linecap="butt" stroke-linejoin="miter" fill-opacity="0" stroke-miterlimit="4" stroke="rgb(31,33,35)" stroke-opacity="1" stroke-width="5" d=" M569.5,-3 C569.5,-3 519.4708251953125,5.334325790405273 482.922607421875,32.828407287597656 C459.3506774902344,51.51350784301758 433.4431457519531,71.7284927368164 412.6839904785156,113.69635009765625 C381.1858825683594,178.6859893798828 383.5964660644531,229 383.5964660644531,229"></path></g></g><g class="black" style="display: none;" transform="matrix(0.37400001287460327,0,0,-0.3706299960613251,-30.954999923706055,215.9770050048828)" opacity="1"><g opacity="1" transform="matrix(1,0,0,1,0,0)"><path stroke-linecap="butt" stroke-linejoin="miter" fill-opacity="0" stroke-miterlimit="4" stroke="rgb(31,33,35)" stroke-opacity="1" stroke-width="5" d=" M569.5,-3 C569.5,-3 569.289794921875,8.924927711486816 569.0089721679688,38.09371566772461 C568.7286987304688,67.95866394042969 569.6055908203125,92.51820373535156 568.3718872070312,142.1680145263672 C568.454345703125,210.49588012695312 568.47216796875,229 568.47216796875,229"></path></g></g><g class="black" transform="matrix(0.37400001287460327,0,0,-0.3706299960613251,-30.954999923706055,215.9770050048828)" opacity="1" style="display: none;"><g opacity="1" transform="matrix(1,0,0,1,0,0)"><path stroke-linecap="butt" stroke-linejoin="miter" fill-opacity="0" stroke-miterlimit="4" stroke="rgb(31,33,35)" stroke-opacity="1" stroke-width="5" d=" M569.5,-3 C569.5,-3 634,-8 702.6909790039062,38.18899917602539 C727.5079956054688,54.87699890136719 759.5,85.5 781.3330078125,137.33299255371094 C802,197.5 804,229 804,229"></path></g></g><g class="black" style="display: block;" transform="matrix(0.37400001287460327,0,0,-0.3706299960613251,-30.954999923706055,215.9770050048828)" opacity="1"><g opacity="1" transform="matrix(1,0,0,1,0,0)"><path stroke-linecap="butt" stroke-linejoin="miter" fill-opacity="0" stroke-miterlimit="4" stroke="rgb(31,33,35)" stroke-opacity="1" stroke-width="5" d=" M569.5,-3 C569.5,-3 546.6865844726562,12.093116760253906 526.507568359375,37.471458435058594 C509.8196105957031,59.69416809082031 489.26849365234375,90.25616455078125 475.3323974609375,136.08746337890625 C457.91217041015625,203.06105041503906 460.6409606933594,229 460.6409606933594,229"></path></g></g><g class="black" style="display: none;" transform="matrix(0.37400001287460327,0,0,-0.3706299960613251,-30.954999923706055,215.9770050048828)" opacity="1"><g opacity="1" transform="matrix(1,0,0,1,0,0)"><path stroke-linecap="butt" stroke-linejoin="miter" fill-opacity="0" stroke-miterlimit="4" stroke="rgb(31,33,35)" stroke-opacity="1" stroke-width="5" d=" M569.5,-3 C569.5,-3 588.3233642578125,22.1182918548584 608.9483032226562,55.51962661743164 C621.6784057617188,81.16960906982422 631.6238403320312,94.48786163330078 644.703857421875,143.79505920410156 C655.9691162109375,192.6092071533203 655.5546264648438,228.50303649902344 655.5546264648438,228.50303649902344"></path></g></g><g class="black" transform="matrix(0.37400001287460327,0,0,-0.3706299960613251,-30.954999923706055,215.9770050048828)" opacity="1" style="display: none;"><g opacity="1" transform="matrix(1,0,0,1,0,0)"><path stroke-linecap="butt" stroke-linejoin="miter" fill-opacity="0" stroke-miterlimit="4" stroke="rgb(31,33,35)" stroke-opacity="1" stroke-width="5" d=" M569.5,-3 C569.5,-3 628.937255859375,-9.274876594543457 697.2642211914062,36.84822082519531 C721.9138793945312,53.54648971557617 759.3670654296875,80.46733856201172 781.053466796875,132.2683868408203 C801.2301025390625,175.55519104003906 801.547607421875,234.32884216308594 801.547607421875,234.32884216308594"></path></g></g><g class="black" style="display: block;" transform="matrix(0.37400001287460327,0,0,-0.3706299960613251,-30.954999923706055,215.9770050048828)" opacity="1"><g opacity="1" transform="matrix(1,0,0,1,0,0)"><path stroke-linecap="butt" stroke-linejoin="miter" fill-opacity="0" stroke-miterlimit="4" stroke="rgb(31,33,35)" stroke-opacity="1" stroke-width="5" d=" M569.5,-3 C569.5,-3 565.6994018554688,10.074433326721191 561.51708984375,38.08197784423828 C557.5628051757812,66.25725555419922 553.3731689453125,93.26738739013672 549.3924560546875,142.20945739746094 C545.994384765625,210.32630920410156 546.7456665039062,229 546.7456665039062,229"></path></g></g><g class="black" style="display: none;" transform="matrix(0.37400001287460327,0,0,-0.3706299960613251,-30.954999923706055,215.9770050048828)" opacity="1"><g opacity="1" transform="matrix(1,0,0,1,0,0)"><path stroke-linecap="butt" stroke-linejoin="miter" fill-opacity="0" stroke-miterlimit="4" stroke="rgb(31,33,35)" stroke-opacity="1" stroke-width="5" d=" M569.5,-3 C569.5,-3 612.35400390625,9.577049255371094 653.91796875,47.2083854675293 C679.6480712890625,68.57736206054688 702.072265625,88.53640747070312 719.0490112304688,137.4825897216797 C735.5176391601562,191.00909423828125 735.6810913085938,228.5 735.6810913085938,228.5"></path></g></g><g class="black" transform="matrix(0.37400001287460327,0,0,-0.37400001287460327,-30.954999923706055,217.093994140625)" opacity="1" style="display: block;"><g opacity="1" transform="matrix(1,0,0,1,0,0)"><path stroke-linecap="butt" stroke-linejoin="miter" fill-opacity="0" stroke-miterlimit="4" stroke="rgb(31,33,35)" stroke-opacity="1" stroke-width="5" d=" M431.5,43.5 C431.5,43.5 489,88.5 569,88.5 C649,88.5 706.9099731445312,43.58700180053711 706.9099731445312,43.58700180053711"></path></g></g><g class="black" transform="matrix(0.37400001287460327,0,0,-0.37400001287460327,-30.954999923706055,217.093994140625)" opacity="1" style="display: block;"><g opacity="1" transform="matrix(0.9999998807907104,-0.0004537855857051909,0.0004537855857051909,0.9999998807907104,0,0)"><path stroke-linecap="butt" stroke-linejoin="miter" fill-opacity="0" stroke-miterlimit="4" stroke="rgb(31,33,35)" stroke-opacity="1" stroke-width="5" d=" M363,127 C363,127 453.8529968261719,177 576.85302734375,176 C699.85302734375,175 778.3709716796875,128.8090057373047 778.3709716796875,128.8090057373047"></path></g></g><g mask="url(#__lottie_element_7)" style="display: block;"><g class="blue" transform="matrix(1,0,0,1,-150.5,83.125)" opacity="1"><g opacity="1" transform="matrix(1,0,0,1,335.9289855957031,46.80799865722656)"><path fill="rgb(83,143,247)" fill-opacity="1" d=" M125.17900085449219,-39.62099838256836 C125.17900085449219,-39.62099838256836 -125.17900085449219,-39.62099838256836 -125.17900085449219,-39.62099838256836 C-125.17900085449219,-39.62099838256836 -125.17900085449219,42.05799865722656 -125.17900085449219,42.05799865722656 C-125.17900085449219,42.05799865722656 125.17900085449219,42.05799865722656 125.17900085449219,42.05799865722656 C125.17900085449219,42.05799865722656 125.17900085449219,-39.62099838256836 125.17900085449219,-39.62099838256836z"></path><path stroke-linecap="butt" stroke-linejoin="miter" fill-opacity="0" stroke-miterlimit="4" stroke="rgb(31,33,35)" stroke-opacity="1" stroke-width="2" d=" M125.17900085449219,-39.62099838256836 C125.17900085449219,-39.62099838256836 -125.17900085449219,-39.62099838256836 -125.17900085449219,-39.62099838256836 C-125.17900085449219,-39.62099838256836 -125.17900085449219,42.05799865722656 -125.17900085449219,42.05799865722656 C-125.17900085449219,42.05799865722656 125.17900085449219,42.05799865722656 125.17900085449219,42.05799865722656 C125.17900085449219,42.05799865722656 125.17900085449219,-39.62099838256836 125.17900085449219,-39.62099838256836z"></path></g></g></g><g mask="url(#__lottie_element_3)" style="display: block;"><g class="white" transform="matrix(1,0,0,1,113.56181335449219,160.75)" opacity="1"><g opacity="1" transform="matrix(1,0,0,1,0,0)"><path stroke-linecap="butt" stroke-linejoin="miter" fill-opacity="0" stroke-miterlimit="4" stroke="rgb(31,32,36)" stroke-opacity="1" stroke-width="4" d=" M-19.422000885009766,0 C-19.422000885009766,0 19.155000686645508,0 19.155000686645508,0 C19.155000686645508,0 19.155000686645508,-7.232999801635742 19.155000686645508,-7.232999801635742 C19.155000686645508,-7.232999801635742 -9.689000129699707,-7.232999801635742 -9.689000129699707,-7.232999801635742 C-9.689000129699707,-7.232999801635742 8.618000030517578,-25.628999710083008 8.618000030517578,-25.628999710083008 C15.166000366210938,-32.29600143432617 18.44099998474121,-38.75600051879883 18.44099998474121,-45.00699996948242 C18.44099998474121,-48.10200119018555 17.636999130249023,-50.9900016784668 16.030000686645508,-53.66899871826172 C14.42300033569336,-56.347999572753906 12.175000190734863,-58.492000579833984 9.288000106811523,-60.0989990234375 C6.400000095367432,-61.70600128173828 3.0820000171661377,-62.5099983215332 -0.6690000295639038,-62.5099983215332 C-4.241000175476074,-62.5099983215332 -7.3379998207092285,-61.779998779296875 -9.956999778747559,-60.321998596191406 C-12.57699966430664,-58.86199951171875 -14.66100025177002,-57.106998443603516 -16.20800018310547,-55.053001403808594 C-17.756999969482422,-52.999000549316406 -18.827999114990234,-51.02000045776367 -19.422000885009766,-49.1150016784668 C-19.422000885009766,-49.1150016784668 -12.456999778747559,-46.34700012207031 -12.456999778747559,-46.34700012207031 C-11.86299991607666,-48.54899978637695 -10.597000122070312,-50.5890007019043 -8.661999702453613,-52.4640007019043 C-6.728000164031982,-54.3390007019043 -4.1519999504089355,-55.277000427246094 -0.9369999766349792,-55.277000427246094 C1.503000020980835,-55.277000427246094 3.6010000705718994,-54.78499984741211 5.357999801635742,-53.803001403808594 C7.11299991607666,-52.82099914550781 8.45300006866455,-51.540000915527344 9.376999855041504,-49.9630012512207 C10.298999786376953,-48.3849983215332 10.76099967956543,-46.70399856567383 10.76099967956543,-44.917999267578125 C10.76099967956543,-42.29800033569336 10.22599983215332,-40.064998626708984 9.154000282287598,-38.220001220703125 C8.081999778747559,-36.374000549316406 6.0279998779296875,-33.81399917602539 2.992000102996826,-30.541000366210938 C0.8489999771118164,-28.2189998626709 -2.9619998931884766,-24.27400016784668 -8.439000129699707,-18.70800018310547 C-13.916999816894531,-13.140999794006348 -17.57699966430664,-9.4350004196167 -19.422000885009766,-7.590000152587891 C-19.422000885009766,-7.590000152587891 -19.422000885009766,0 -19.422000885009766,0z"></path><path fill="rgb(255,255,255)" fill-opacity="1" d=" M-19.422000885009766,0 C-19.422000885009766,0 19.155000686645508,0 19.155000686645508,0 C19.155000686645508,0 19.155000686645508,-7.232999801635742 19.155000686645508,-7.232999801635742 C19.155000686645508,-7.232999801635742 -9.689000129699707,-7.232999801635742 -9.689000129699707,-7.232999801635742 C-9.689000129699707,-7.232999801635742 8.618000030517578,-25.628999710083008 8.618000030517578,-25.628999710083008 C15.166000366210938,-32.29600143432617 18.44099998474121,-38.75600051879883 18.44099998474121,-45.00699996948242 C18.44099998474121,-48.10200119018555 17.636999130249023,-50.9900016784668 16.030000686645508,-53.66899871826172 C14.42300033569336,-56.347999572753906 12.175000190734863,-58.492000579833984 9.288000106811523,-60.0989990234375 C6.400000095367432,-61.70600128173828 3.0820000171661377,-62.5099983215332 -0.6690000295639038,-62.5099983215332 C-4.241000175476074,-62.5099983215332 -7.3379998207092285,-61.779998779296875 -9.956999778747559,-60.321998596191406 C-12.57699966430664,-58.86199951171875 -14.66100025177002,-57.106998443603516 -16.20800018310547,-55.053001403808594 C-17.756999969482422,-52.999000549316406 -18.827999114990234,-51.02000045776367 -19.422000885009766,-49.1150016784668 C-19.422000885009766,-49.1150016784668 -12.456999778747559,-46.34700012207031 -12.456999778747559,-46.34700012207031 C-11.86299991607666,-48.54899978637695 -10.597000122070312,-50.5890007019043 -8.661999702453613,-52.4640007019043 C-6.728000164031982,-54.3390007019043 -4.1519999504089355,-55.277000427246094 -0.9369999766349792,-55.277000427246094 C1.503000020980835,-55.277000427246094 3.6010000705718994,-54.78499984741211 5.357999801635742,-53.803001403808594 C7.11299991607666,-52.82099914550781 8.45300006866455,-51.540000915527344 9.376999855041504,-49.9630012512207 C10.298999786376953,-48.3849983215332 10.76099967956543,-46.70399856567383 10.76099967956543,-44.917999267578125 C10.76099967956543,-42.29800033569336 10.22599983215332,-40.064998626708984 9.154000282287598,-38.220001220703125 C8.081999778747559,-36.374000549316406 6.0279998779296875,-33.81399917602539 2.992000102996826,-30.541000366210938 C0.8489999771118164,-28.2189998626709 -2.9619998931884766,-24.27400016784668 -8.439000129699707,-18.70800018310547 C-13.916999816894531,-13.140999794006348 -17.57699966430664,-9.4350004196167 -19.422000885009766,-7.590000152587891 C-19.422000885009766,-7.590000152587891 -19.422000885009766,0 -19.422000885009766,0z"></path></g><g opacity="1" transform="matrix(1,0,0,1,45.5,0)"><path stroke-linecap="butt" stroke-linejoin="miter" fill-opacity="0" stroke-miterlimit="4" stroke="rgb(31,32,36)" stroke-opacity="1" stroke-width="4" d=" M-19.422000885009766,0 C-19.422000885009766,0 19.155000686645508,0 19.155000686645508,0 C19.155000686645508,0 19.155000686645508,-7.232999801635742 19.155000686645508,-7.232999801635742 C19.155000686645508,-7.232999801635742 -9.689000129699707,-7.232999801635742 -9.689000129699707,-7.232999801635742 C-9.689000129699707,-7.232999801635742 8.618000030517578,-25.628999710083008 8.618000030517578,-25.628999710083008 C15.166000366210938,-32.29600143432617 18.44099998474121,-38.75600051879883 18.44099998474121,-45.00699996948242 C18.44099998474121,-48.10200119018555 17.636999130249023,-50.9900016784668 16.030000686645508,-53.66899871826172 C14.42300033569336,-56.347999572753906 12.175000190734863,-58.492000579833984 9.288000106811523,-60.0989990234375 C6.400000095367432,-61.70600128173828 3.0820000171661377,-62.5099983215332 -0.6690000295639038,-62.5099983215332 C-4.241000175476074,-62.5099983215332 -7.3379998207092285,-61.779998779296875 -9.956999778747559,-60.321998596191406 C-12.57699966430664,-58.86199951171875 -14.66100025177002,-57.106998443603516 -16.20800018310547,-55.053001403808594 C-17.756999969482422,-52.999000549316406 -18.827999114990234,-51.02000045776367 -19.422000885009766,-49.1150016784668 C-19.422000885009766,-49.1150016784668 -12.456999778747559,-46.34700012207031 -12.456999778747559,-46.34700012207031 C-11.86299991607666,-48.54899978637695 -10.597000122070312,-50.5890007019043 -8.661999702453613,-52.4640007019043 C-6.728000164031982,-54.3390007019043 -4.1519999504089355,-55.277000427246094 -0.9369999766349792,-55.277000427246094 C1.503000020980835,-55.277000427246094 3.6010000705718994,-54.78499984741211 5.357999801635742,-53.803001403808594 C7.11299991607666,-52.82099914550781 8.45300006866455,-51.540000915527344 9.376999855041504,-49.9630012512207 C10.298999786376953,-48.3849983215332 10.76099967956543,-46.70399856567383 10.76099967956543,-44.917999267578125 C10.76099967956543,-42.29800033569336 10.22599983215332,-40.064998626708984 9.154000282287598,-38.220001220703125 C8.081999778747559,-36.374000549316406 6.0279998779296875,-33.81399917602539 2.992000102996826,-30.541000366210938 C0.8489999771118164,-28.2189998626709 -2.9619998931884766,-24.27400016784668 -8.439000129699707,-18.70800018310547 C-13.916999816894531,-13.140999794006348 -17.57699966430664,-9.4350004196167 -19.422000885009766,-7.590000152587891 C-19.422000885009766,-7.590000152587891 -19.422000885009766,0 -19.422000885009766,0z"></path><path fill="rgb(255,255,255)" fill-opacity="1" d=" M-19.422000885009766,0 C-19.422000885009766,0 19.155000686645508,0 19.155000686645508,0 C19.155000686645508,0 19.155000686645508,-7.232999801635742 19.155000686645508,-7.232999801635742 C19.155000686645508,-7.232999801635742 -9.689000129699707,-7.232999801635742 -9.689000129699707,-7.232999801635742 C-9.689000129699707,-7.232999801635742 8.618000030517578,-25.628999710083008 8.618000030517578,-25.628999710083008 C15.166000366210938,-32.29600143432617 18.44099998474121,-38.75600051879883 18.44099998474121,-45.00699996948242 C18.44099998474121,-48.10200119018555 17.636999130249023,-50.9900016784668 16.030000686645508,-53.66899871826172 C14.42300033569336,-56.347999572753906 12.175000190734863,-58.492000579833984 9.288000106811523,-60.0989990234375 C6.400000095367432,-61.70600128173828 3.0820000171661377,-62.5099983215332 -0.6690000295639038,-62.5099983215332 C-4.241000175476074,-62.5099983215332 -7.3379998207092285,-61.779998779296875 -9.956999778747559,-60.321998596191406 C-12.57699966430664,-58.86199951171875 -14.66100025177002,-57.106998443603516 -16.20800018310547,-55.053001403808594 C-17.756999969482422,-52.999000549316406 -18.827999114990234,-51.02000045776367 -19.422000885009766,-49.1150016784668 C-19.422000885009766,-49.1150016784668 -12.456999778747559,-46.34700012207031 -12.456999778747559,-46.34700012207031 C-11.86299991607666,-48.54899978637695 -10.597000122070312,-50.5890007019043 -8.661999702453613,-52.4640007019043 C-6.728000164031982,-54.3390007019043 -4.1519999504089355,-55.277000427246094 -0.9369999766349792,-55.277000427246094 C1.503000020980835,-55.277000427246094 3.6010000705718994,-54.78499984741211 5.357999801635742,-53.803001403808594 C7.11299991607666,-52.82099914550781 8.45300006866455,-51.540000915527344 9.376999855041504,-49.9630012512207 C10.298999786376953,-48.3849983215332 10.76099967956543,-46.70399856567383 10.76099967956543,-44.917999267578125 C10.76099967956543,-42.29800033569336 10.22599983215332,-40.064998626708984 9.154000282287598,-38.220001220703125 C8.081999778747559,-36.374000549316406 6.0279998779296875,-33.81399917602539 2.992000102996826,-30.541000366210938 C0.8489999771118164,-28.2189998626709 -2.9619998931884766,-24.27400016784668 -8.439000129699707,-18.70800018310547 C-13.916999816894531,-13.140999794006348 -17.57699966430664,-9.4350004196167 -19.422000885009766,-7.590000152587891 C-19.422000885009766,-7.590000152587891 -19.422000885009766,0 -19.422000885009766,0z"></path></g></g></g></g></svg>