<svg version="1.1" id="Layer_1" xmlns:sketch="http://www.bohemiancoding.com/sketch/ns" xmlns="http://www.w3.org/2000/svg" xmlns:xlink="http://www.w3.org/1999/xlink" x="0px" y="0px" width="222px" height="183px" viewBox="0 0 222 183" enable-background="new 0 0 222 183" xml:space="preserve">
<path id="Fill-1" sketch:type="MSShapeGroup" fill="#FFFFFF" d="M211.392,48.714l8.441,98.983"></path>
<path id="Stroke-2" sketch:type="MSShapeGroup" fill="none" stroke="#B4B5B4" stroke-width="2" stroke-linecap="round" d="
      M211.392,48.714l8.441,98.983"></path>
<path id="Fill-3" sketch:type="MSShapeGroup" fill="#FFFFFF" d="M11.373,165.539l-8.708-98.66"></path>
<path id="Stroke-4" sketch:type="MSShapeGroup" fill="none" stroke="#B4B5B4" stroke-width="2" stroke-linecap="round" d="
      M11.373,165.539l-8.708-98.66"></path>
<path id="Stroke-5" sketch:type="MSShapeGroup" fill="none" stroke="#B4B5B4" stroke-width="2" stroke-linecap="round" d="
      M145.782,38.57l58.654-5.096c3.019-0.262,5.678,1.977,5.939,5l0.608,7.023"></path>
<path id="Fill-6" sketch:type="MSShapeGroup" fill="#FFFFFF" d="M73.116,44.869l64.628-5.6"></path>
<path id="Stroke-7" sketch:type="MSShapeGroup" fill="none" stroke="#B4B5B4" stroke-width="2" stroke-linecap="round" d="
      M73.116,44.869l64.628-5.6"></path>
<path id="Stroke-8" sketch:type="MSShapeGroup" fill="none" stroke="#B4B5B4" stroke-width="2" stroke-linecap="round" d="
      M2.458,63.616l-0.607-7.023c-0.262-3.023,1.974-5.688,4.991-5.95l58.025-5.042 M220.156,151.437l0.607,7.022
      c0.262,3.024-1.973,5.689-4.991,5.951L18.178,181.579c-3.018,0.262-5.678-1.978-5.939-5.001l-0.608-7.022L220.156,151.437z
      M65.166,52.021c0.141,1.624-1.06,3.055-2.681,3.196c-1.621,0.141-3.05-1.062-3.19-2.686c-0.141-1.624,1.06-3.056,2.681-3.196
      C63.597,49.195,65.026,50.397,65.166,52.021L65.166,52.021z M150.418,44.614c0.141,1.624-1.06,3.055-2.681,3.196
      c-1.621,0.141-3.05-1.062-3.19-2.686s1.061-3.055,2.682-3.196C148.85,41.787,150.277,42.99,150.418,44.614L150.418,44.614z"></path>
<path id="Fill-9" sketch:type="MSShapeGroup" fill="#FFFFFF" d="M207.045,45.84L6.399,63.273"></path>
<path id="Stroke-10" sketch:type="MSShapeGroup" fill="none" stroke="#B4B5B4" stroke-width="2" stroke-linecap="round" d="
      M207.045,45.84L6.399,63.273"></path>
<path id="Fill-11" sketch:type="MSShapeGroup" fill="#FFFFFF" d="M215.774,152.169L15.129,169.604"></path>
<path id="Stroke-12" sketch:type="MSShapeGroup" fill="none" stroke="#B4B5B4" stroke-width="2" stroke-linecap="round" d="
      M215.774,152.169L15.129,169.604"></path>
<path id="Stroke-21" sketch:type="MSShapeGroup" fill="none" stroke="#B4B5B4" stroke-width="2" stroke-linecap="round" d="
      M113.066,13.02c0.269,0.191,0.543,0.391,0.822,0.598"></path>
<path id="Stroke-22" sketch:type="MSShapeGroup" fill="none" stroke="#B4B5B4" stroke-width="2" stroke-linecap="round" stroke-dasharray="2.826,4.71" d="
      M116.42,15.571c8.638,6.902,20.656,18.594,25.215,23.092"></path>
<path id="Stroke-23" sketch:type="MSShapeGroup" fill="none" stroke="#B4B5B4" stroke-width="2" stroke-linecap="round" d="
      M142.77,39.785c0.465,0.462,0.719,0.716,0.719,0.716 M66.289,48.035c0,0,0.245-0.26,0.697-0.738"></path>
<path id="Stroke-24" sketch:type="MSShapeGroup" fill="none" stroke="#B4B5B4" stroke-width="2" stroke-linecap="round" stroke-dasharray="2.971,4.951" d="
      M69.3,44.863c6.121-6.414,20.211-20.994,29.391-29.047"></path>
<path id="Stroke-25" sketch:type="MSShapeGroup" fill="none" stroke="#B4B5B4" stroke-width="2" stroke-linecap="round" d="
      M99.961,14.718c0.264-0.226,0.523-0.444,0.777-0.656L99.961,14.718z M110.128,12.192c0.082,1.73-1.254,3.199-2.98,3.28
      c-1.727,0.081-3.193-1.255-3.274-2.986c-0.081-1.73,1.254-3.198,2.981-3.279C108.582,9.125,110.048,10.461,110.128,12.192
      L110.128,12.192z M115.104,19.161c-2.021,2.406-5.086,3.891-8.468,3.774c-3.047-0.105-5.57-1.665-7.609-3.626 M96.468,13.383
      c0.038-0.463-0.06-0.933-0.044-1.411c0.202-5.852,5.101-10.432,10.942-10.23c5.842,0.202,10.413,5.11,10.212,10.961"></path>
<g>
            <path fill="#B4B5B4" d="M67.4,81.402c-0.494-1.389-1.498-1.991-3.009-1.807c-0.938,0.114-1.638,0.589-2.103,1.42
		c-0.46,0.833-0.61,1.927-0.444,3.289c0.156,1.274,0.55,2.266,1.183,2.973c0.634,0.706,1.436,1,2.408,0.882
		c1.482-0.182,2.304-1.07,2.462-2.669l2.589-0.315c-0.033,1.291-0.456,2.438-1.276,3.442c-0.816,1.004-2.001,1.6-3.552,1.789
		c-1.73,0.211-3.177-0.192-4.339-1.21c-1.16-1.02-1.867-2.553-2.117-4.605c-0.239-1.959,0.077-3.602,0.947-4.926
		c0.87-1.323,2.188-2.092,3.952-2.307c1.544-0.188,2.845,0.077,3.899,0.794c1.053,0.719,1.715,1.697,1.987,2.935L67.4,81.402z"></path>
            <path fill="#B4B5B4" d="M81.443,75.576l1.511,12.389l-2.587,0.316l-0.679-5.554l-4.836,0.59l0.679,5.554l-2.587,0.315
		l-1.511-12.389l2.587-0.315l0.572,4.695l4.836-0.59l-0.572-4.695L81.443,75.576z"></path>
            <path fill="#B4B5B4" d="M94.906,82.111c0.187,1.524-0.096,2.731-0.843,3.627c-0.751,0.895-1.975,1.446-3.68,1.654
		c-1.493,0.182-2.729-0.052-3.71-0.707c-0.981-0.652-1.562-1.725-1.744-3.22l-0.999-8.192l2.646-0.323l0.98,8.042
		c0.099,0.808,0.373,1.401,0.824,1.776c0.449,0.375,1.049,0.516,1.795,0.425c0.753-0.092,1.317-0.359,1.689-0.804
		c0.374-0.443,0.513-1.063,0.415-1.854l-0.994-8.159l2.638-0.322L94.906,82.111z M89.446,73.515l-1.745,0.212l1.32-2.719
		l2.652-0.323L89.446,73.515z"></path>
            <path fill="#B4B5B4" d="M104.098,72.814l2.419-0.295l1.51,12.39l-2.59,0.316L99.296,77l-0.035,0.005l1.08,8.84l-2.419,0.295
		l-1.511-12.389l2.731-0.333l5.972,8.031l0.035-0.004L104.098,72.814z"></path>
            <path fill="#B4B5B4" d="M115.604,77.202l5.173-0.63l0.814,6.684l-1.73,0.211l-0.443-1.52c-0.804,1.37-2.033,2.154-3.69,2.357
		c-1.658,0.202-3.086-0.224-4.286-1.279c-1.195-1.053-1.914-2.561-2.152-4.522c-0.239-1.959,0.108-3.61,1.049-4.947
		c0.937-1.336,2.341-2.12,4.214-2.349c1.603-0.195,2.933,0.053,3.984,0.741c1.055,0.69,1.708,1.612,1.964,2.769l-2.586,0.315
		c-0.233-0.6-0.62-1.052-1.164-1.361c-0.539-0.307-1.145-0.42-1.807-0.339c-1.106,0.135-1.929,0.638-2.462,1.507
		c-0.537,0.869-0.721,1.991-0.553,3.368c0.168,1.371,0.601,2.389,1.301,3.053c0.701,0.665,1.644,0.923,2.831,0.778
		c0.671-0.082,1.255-0.372,1.763-0.872c0.502-0.5,0.809-1.241,0.918-2.224l-2.883,0.351L115.604,77.202z"></path>
            <path fill="#B4B5B4" d="M133.123,81.85l-2.588,0.314l-1.244-10.197l-3.742,0.456l-0.266-2.192l10.078-1.229l0.268,2.192
		l-3.75,0.458L133.123,81.85z"></path>
            <path fill="#B4B5B4" d="M137.088,75.08c-0.26-2.124,0.096-3.809,1.066-5.058c0.973-1.247,2.328-1.976,4.07-2.188
		c1.74-0.212,3.238,0.161,4.492,1.123c1.258,0.963,2.014,2.521,2.275,4.671c0.258,2.101-0.098,3.782-1.063,5.04
		c-0.965,1.259-2.326,1.994-4.09,2.208c-1.682,0.205-3.158-0.154-4.436-1.081C138.129,78.871,137.357,77.298,137.088,75.08z
		 M145.191,66.719l-1.945,0.237l-1.277-1.281l-0.912,1.548l-1.949,0.238l1.658-2.759l2.156-0.263L145.191,66.719z M139.674,74.764
		c0.174,1.438,0.625,2.48,1.357,3.127c0.727,0.647,1.582,0.91,2.564,0.79c0.984-0.121,1.74-0.59,2.271-1.414
		c0.529-0.822,0.709-1.929,0.539-3.323c-0.17-1.393-0.607-2.427-1.314-3.098c-0.705-0.672-1.566-0.947-2.584-0.823
		s-1.787,0.596-2.309,1.415C139.68,72.255,139.502,73.365,139.674,74.764z"></path>
            <path fill="#B4B5B4" d="M154.318,79.265l-2.59,0.316l-1.51-12.389l2.588-0.316L154.318,79.265z"></path>
</g>
<g>
            <path fill="#E2AD2C" stroke="#CC9927" stroke-width="0.25" stroke-miterlimit="10" d="M48.254,94.813
		c1.643-0.177,3.321,0.095,5.037,0.82c1.688,0.777,3.141,1.888,4.359,3.335c0.32,0.351,0.513,0.836,0.58,1.454
		c0.061,0.56-0.081,1.048-0.419,1.472c-0.39,0.438-0.837,0.694-1.343,0.775c-1.177-0.421-1.978-0.699-2.404-0.832
		c-0.48-0.173-1.013-0.227-1.598-0.164c-0.739,0.079-1.338,0.388-1.804,0.929c-0.5,0.609-0.738,1.304-0.713,2.081
		c0.419,1.438,1.31,2.7,2.671,3.786c1.332,1.075,2.824,2.229,4.473,3.465c1.602,1.252,2.761,2.544,3.48,3.881
		c0.888,1.722,1.412,3.313,1.569,4.78c0.347,3.211-0.682,6.038-3.084,8.481c-2.41,2.524-5.218,4.185-8.423,4.985
		c-0.592,0.063-1.072,0.145-1.437,0.246c-2.497,0.208-4.987-0.209-7.464-1.254c-2.491-1.015-3.857-2.622-4.093-4.816
		c-0.063-0.585,0.114-1.046,0.532-1.379c0.377-0.317,0.85-0.505,1.418-0.565c0.695-0.075,1.747-0.054,3.157,0.069
		c1.458,0.176,2.417,0.249,2.878,0.216c1.726-0.287,2.848-1.232,3.371-2.829c0.192-0.52,0.263-1.02,0.211-1.503
		c-0.076-0.694-0.391-1.348-0.944-1.955c-0.871-0.917-2.71-2.665-5.516-5.242c-2.775-2.441-4.32-4.225-4.64-5.35
		c-0.036-0.176-0.132-0.601-0.291-1.278c-0.193-0.74-0.28-1.084-0.266-1.026c-0.342-3.323,0.492-6.162,2.499-8.522
		C42.038,96.542,44.771,95.189,48.254,94.813z"></path>
            <path fill="#E2AD2C" stroke="#CC9927" stroke-width="0.25" stroke-miterlimit="10" d="M76.812,105
		c1.998-0.146,3.833,0.012,5.503,0.474c1.625,0.45,2.881,1.243,3.765,2.383c0.606,0.776,0.967,1.698,1.083,2.763
		c0.052,0.484,0.048,1.012-0.01,1.583c-0.186,1.69-1.024,3.098-2.515,4.219c-1.503,1.165-3.194,1.929-5.074,2.294
		c-1.017,0.033-1.844-0.12-2.481-0.465c-0.551-0.265-0.851-0.619-0.897-1.06c-0.008-0.066-0.004-0.195,0.01-0.388
		c0.035-0.301,0.54-0.897,1.518-1.783c0.952-0.873,1.365-1.883,1.242-3.026c-0.184-1.702-1.214-2.451-3.084-2.25
		c-1.542,0.166-2.625,1.02-3.247,2.561c-0.648,1.613-0.927,3.174-0.832,4.68c0.243,1.217,0.626,2.152,1.151,2.807
		c1.334,1.88,3.591,2.707,6.772,2.482c1.27-0.223,2.266-0.534,2.984-0.938c0.784-0.428,1.675-0.962,2.667-1.611
		c0.973-0.594,1.727-0.918,2.259-0.977c1.162-0.124,1.818,0.519,1.971,1.935c0.131,1.221-0.103,2.582-0.704,4.088
		c-0.613,1.547-1.741,2.911-3.389,4.093c-1.653,1.198-3.856,1.945-6.61,2.244c-0.052,0.005-0.11,0.01-0.178,0.018
		c-0.067,0.008-0.128,0.016-0.178,0.021c-3.185,0.342-5.739,0.073-7.66-0.808c-1.983-0.909-3.358-2.212-4.124-3.913
		c-0.784-1.697-1.296-3.682-1.542-5.953c-0.402-4.292,0.362-7.851,2.295-10.675c1.881-2.729,4.945-4.325,9.189-4.782
		c0.008,0,0.023-0.004,0.045-0.004c0.02-0.003,0.04-0.005,0.056-0.007L76.812,105z"></path>
            <path fill="#E2AD2C" stroke="#CC9927" stroke-width="0.25" stroke-miterlimit="10" d="M74.885,100.953l0.011-0.014
		c-0.478-0.214-0.926-0.316-1.345-0.306c-0.328,0.13-0.506,0.266-0.535,0.404c-0.511,1.521-1.341,2.388-2.483,2.596
		c-0.453,0.091-0.972,0.02-1.554-0.22c-0.464-0.256-0.881-0.624-1.249-1.097c-0.344-0.495-0.568-1.007-0.667-1.536
		c-0.178-0.932-0.005-1.829,0.519-2.691c0.509-0.922,1.207-1.505,2.087-1.755c0.912-0.133,2.745,0.217,5.5,1.052
		c0.524,0.168,0.937,0.22,1.238,0.161c0.329-0.05,0.554-0.294,0.679-0.727c0.409-1.237,1.164-1.984,2.266-2.251
		c0.9-0.149,1.664,0.065,2.293,0.64c0.663,0.511,1.073,1.216,1.23,2.118c0.174,0.982,0.017,1.938-0.475,2.865
		c-0.472,0.882-1.202,1.416-2.191,1.6C78.677,102.069,76.902,101.79,74.885,100.953z"></path>
            <path fill="#E2AD2C" stroke="#CC9927" stroke-width="0.25" stroke-miterlimit="10" d="M121.564,86.908
		c1.644-0.179,3.323,0.095,5.039,0.817c1.688,0.778,3.14,1.89,4.357,3.336c0.32,0.351,0.514,0.836,0.581,1.455
		c0.061,0.56-0.08,1.048-0.42,1.472c-0.39,0.438-0.839,0.694-1.343,0.776c-1.178-0.425-1.979-0.701-2.405-0.836
		c-0.479-0.171-1.012-0.224-1.598-0.161c-0.736,0.08-1.338,0.389-1.802,0.928c-0.501,0.61-0.739,1.306-0.714,2.082
		c0.42,1.438,1.31,2.699,2.671,3.787c1.331,1.072,2.823,2.228,4.475,3.464c1.6,1.251,2.759,2.544,3.479,3.882
		c0.888,1.721,1.411,3.313,1.569,4.776c0.347,3.213-0.684,6.042-3.084,8.484c-2.41,2.523-5.219,4.186-8.423,4.984
		c-0.595,0.065-1.073,0.146-1.438,0.245c-2.497,0.21-4.985-0.207-7.464-1.253c-2.49-1.015-3.856-2.621-4.093-4.814
		c-0.063-0.586,0.114-1.046,0.532-1.383c0.377-0.315,0.85-0.502,1.417-0.563c0.695-0.074,1.748-0.053,3.158,0.071
		c1.458,0.175,2.418,0.248,2.878,0.216c1.726-0.287,2.849-1.232,3.371-2.832c0.192-0.517,0.264-1.019,0.212-1.502
		c-0.076-0.693-0.392-1.346-0.944-1.954c-0.872-0.916-2.71-2.665-5.517-5.242c-2.774-2.442-4.32-4.224-4.64-5.349
		c-0.035-0.177-0.133-0.604-0.29-1.279c-0.194-0.742-0.281-1.084-0.266-1.025c-0.341-3.323,0.492-6.164,2.5-8.523
		C115.35,88.635,118.083,87.282,121.564,86.908z"></path>
            <path fill="#E2AD2C" stroke="#CC9927" stroke-width="0.25" stroke-miterlimit="10" d="M149.09,97.525
		c1.238-0.133,2.624,0.001,4.157,0.401c1.161,0.346,1.901,0.904,2.226,1.676c0.146-0.161,0.266-0.282,0.36-0.362
		c0.378-0.384,0.582-0.674,0.612-0.876l-0.602-0.563c-1.064-0.804-1.57-1.885-1.521-3.245c0.096-0.617,0.382-1.236,0.854-1.853
		c0.473-0.559,1.026-0.959,1.669-1.21c0.642-0.249,1.315-0.32,2.021-0.217c0.663,0.109,1.281,0.377,1.86,0.802
		c0.526,0.431,0.918,0.97,1.175,1.609c0.24,0.695,0.304,1.378,0.197,2.049c-0.146,0.949-0.691,2.216-1.635,3.801
		c-0.502,0.74-1.088,1.353-1.757,1.835c-0.268,0.218-0.549,0.377-0.847,0.479c0.664,0.288,1.309,0.906,1.935,1.859
		c1.113,1.653,1.824,3.928,2.138,6.815c0.273,2.55,0.038,4.696-0.708,6.439c-0.595,1.315-1.297,2.433-2.106,3.352
		c-0.799,0.848-1.764,1.488-2.891,1.918c-1.189,0.481-2.553,0.804-4.088,0.968c-2.354,0.255-4.562,0-6.624-0.765
		c-2.1-0.696-3.615-1.798-4.55-3.302c-0.923-1.501-1.566-3.413-1.929-5.729c-0.191-2.421,0.037-4.795,0.686-7.119
		c0.591-2.309,1.709-4.295,3.356-5.954c1.609-1.614,3.608-2.548,5.996-2.808L149.09,97.525z M155.408,101.036
		c-0.175,0.225-0.438,0.404-0.79,0.547c-0.022,0.003-0.525-0.097-1.497-0.302c-1.018-0.224-2.175-0.266-3.472-0.125
		c-1.542,0.165-2.688,0.752-3.437,1.758c-0.696,0.915-0.98,1.995-0.845,3.241c0.002,0.026,0.006,0.053,0.008,0.081
		c0.004,0.031,0.006,0.054,0.01,0.072c0.002,0.025,0.005,0.051,0.008,0.08c0.001,0.03,0.004,0.054,0.008,0.07
		c0.137,1.279,0.704,2.303,1.706,3.069c1.021,0.799,2.241,1.121,3.666,0.967c1.635-0.177,2.927-0.785,3.877-1.831
		c0.793-0.823,1.115-1.927,0.968-3.307c-0.006-0.041-0.044-0.248-0.12-0.615c-0.053-0.493-0.132-0.853-0.245-1.08
		c0.004-0.943,0.336-1.548,1.001-1.817c-0.009,0.001-0.018-0.004-0.034-0.011c-0.012-0.006-0.021-0.015-0.021-0.022
		c-0.208-0.099-0.387-0.25-0.536-0.456C155.576,101.287,155.493,101.179,155.408,101.036z"></path>
            <path fill="#E2AD2C" stroke="#CC9927" stroke-width="0.25" stroke-miterlimit="10" d="M153.849,82.062l0.026,0.011
		c0.993,0.448,1.602,1.24,1.824,2.374c-0.034,1.11-0.287,2.332-0.762,3.668c-0.448,1.395-1.095,2.556-1.936,3.488
		c-0.83,0.99-1.806,1.544-2.933,1.666c-1.67-0.155-2.604-1.143-2.8-2.962c-0.187-1.728,0.089-3.551,0.823-5.463
		c0.798-1.912,1.987-2.954,3.57-3.123c0.849-0.092,1.577,0.025,2.187,0.355L153.849,82.062z"></path>
            <path fill="#E2AD2C" stroke="#CC9927" stroke-width="0.25" stroke-miterlimit="10" d="M167.66,95.202
		c0.017-0.003,0.034-0.005,0.05-0.005c0.02-0.003,0.038-0.006,0.064-0.008c1.636-0.176,2.735,0.441,3.299,1.854
		c0.559,1.534,1.099,3.759,1.618,6.678c0.076-2.082,0.479-4.166,1.215-6.251c0.695-2.004,1.963-3.121,3.806-3.354
		c0.018-0.001,0.031-0.003,0.044-0.003c0.014-0.003,0.031-0.005,0.058-0.007c0.906-0.098,1.682,0.238,2.319,1.008
		c0.71,0.858,1.35,1.896,1.917,3.108c0.274,0.641,0.564,1.318,0.869,2.036c0.304,0.717,0.623,1.468,0.955,2.256
		c0.552-2.605,1.247-4.821,2.087-6.652c0.781-1.815,2.005-2.826,3.67-3.031c0.009,0,0.023-0.004,0.046-0.005
		c0.021-0.002,0.04-0.003,0.057-0.007c1.136-0.121,2.112,0.317,2.93,1.316c0.842,1.119,1.572,2.405,2.192,3.866
		c1.573,3.378,2.616,7.461,3.134,12.245c0.241,2.237,0.039,4.124-0.61,5.66c-0.645,1.586-1.653,2.469-3.031,2.653
		c-0.051,0.006-0.101,0.011-0.146,0.015c-0.047,0.006-0.084,0.009-0.109,0.012c-0.754,0.082-1.374,0.004-1.863-0.236
		c-0.558-0.239-0.951-0.633-1.182-1.185c-0.255-0.536-0.487-1.228-0.7-2.071c-0.565-2.611-1.427-4.906-2.593-6.878
		c-1.015-1.614-1.971-2.372-2.868-2.277c-0.202,0.023-0.374,0.059-0.516,0.107c0.637,2.315,1.064,4.493,1.284,6.535
		c0.473,4.38-0.668,6.839-3.421,7.373c-0.068,0.01-0.139,0.018-0.208,0.024c-0.074,0.009-0.144,0.015-0.213,0.022
		c-0.668,0.072-1.272-0.004-1.811-0.227c-0.696-0.27-1.138-0.767-1.317-1.494c-0.149-0.514-0.446-1.951-0.889-4.312
		c-0.484-2.494-0.927-4.326-1.327-5.5c-0.356-1.008-0.776-1.485-1.26-1.434c-0.033,0.002-0.069,0.007-0.108,0.011
		c-0.038,0.004-0.073,0.009-0.107,0.012c-0.371,0.136-0.731,0.839-1.083,2.111c-0.423,1.415-0.769,2.931-1.039,4.546
		c-0.358,2.104-0.636,3.724-0.84,4.86c-0.272,1.049-0.862,1.624-1.769,1.721c-0.018,0.001-0.035,0.003-0.052,0.006
		c-0.017,0.001-0.032,0.003-0.051,0.006c-0.922,0.1-1.739-0.795-2.446-2.681c-1.827-4.439-3.047-9.083-3.661-13.926
		c-0.024-0.434-0.039-0.877-0.051-1.327c-0.008-0.448-0.02-0.898-0.035-1.353c-0.021-0.837,0.043-1.706,0.196-2.603
		c0.148-0.848,0.507-1.571,1.076-2.176C165.794,95.664,166.6,95.315,167.66,95.202z"></path>
</g>

<g>
            <g>
            <path fill="#B4B5B4" d="M89.047,150.924l-2.515,0.276l-1.09-9.907l-3.636,0.4l-0.233-2.129l9.793-1.08l0.233,2.131l-3.643,0.4
			L89.047,150.924z"></path>
            <path fill="#B4B5B4" d="M92.838,138.324l6.085-0.67c1.238-0.137,2.217,0.09,2.936,0.685c0.715,0.593,1.127,1.358,1.229,2.296
			c0.153,1.398-0.361,2.422-1.543,3.071c0.598,0.155,1.028,0.427,1.296,0.815c0.265,0.389,0.458,1.119,0.576,2.192
			c0.118,1.071,0.228,1.695,0.326,1.876c0.1,0.18,0.252,0.293,0.456,0.342l0.035,0.321l-2.776,0.306
			c-0.238-0.523-0.414-1.293-0.525-2.314c-0.097-0.855-0.213-1.4-0.355-1.639c-0.143-0.232-0.352-0.394-0.629-0.477
			c-0.277-0.082-0.692-0.094-1.243-0.033l-2.596,0.287l0.519,4.705l-2.464,0.271L92.838,138.324z M98.834,143.026
			c0.66-0.071,1.135-0.253,1.429-0.539c0.291-0.288,0.404-0.726,0.339-1.32c-0.055-0.491-0.246-0.862-0.574-1.11
			c-0.328-0.249-0.779-0.341-1.359-0.275l-3.137,0.346l0.355,3.226L98.834,143.026z"></path>
            <path fill="#B4B5B4" d="M104.883,143.09c-0.227-2.065,0.138-3.695,1.093-4.895c0.957-1.199,2.281-1.893,3.974-2.078
			c2.096-0.229,3.806,0.409,5.123,1.915c0.335-0.075,0.571-0.231,0.713-0.468c0.139-0.238,0.186-0.576,0.136-1.025
			c-0.021-0.215-0.072-0.461-0.148-0.741l1.686-0.185c0.098,0.289,0.166,0.596,0.203,0.922c0.086,0.781-0.051,1.379-0.408,1.791
			c-0.358,0.412-0.857,0.682-1.505,0.807c0.356,0.752,0.589,1.648,0.703,2.683c0.225,2.044-0.139,3.668-1.089,4.877
			c-0.948,1.208-2.279,1.907-3.994,2.099c-1.632,0.179-3.061-0.188-4.289-1.1C105.854,146.78,105.121,145.244,104.883,143.09z
			 M107.397,142.813c0.153,1.398,0.578,2.412,1.281,3.051c0.695,0.632,1.523,0.902,2.479,0.794c0.957-0.104,1.696-0.552,2.219-1.347
			c0.524-0.792,0.711-1.863,0.562-3.217c-0.148-1.354-0.562-2.359-1.236-3.021c-0.68-0.659-1.514-0.936-2.501-0.827
			c-0.988,0.108-1.74,0.557-2.254,1.347C107.43,140.379,107.247,141.453,107.397,142.813z M110.31,135.397l-0.949,0.104
			c-0.024-0.217-0.002-0.402,0.064-0.552c0.071-0.153,0.193-0.298,0.373-0.438c0.162-0.119,0.294-0.226,0.395-0.321
			c0.099-0.097,0.14-0.236,0.119-0.415c-0.021-0.207-0.1-0.356-0.229-0.443c-0.132-0.088-0.279-0.125-0.444-0.106
			c-0.168,0.019-0.311,0.091-0.423,0.214c-0.113,0.123-0.171,0.296-0.166,0.516l-1.008,0.111c-0.055-0.509,0.069-0.922,0.375-1.244
			c0.304-0.32,0.688-0.506,1.15-0.558c0.474-0.052,0.882,0.04,1.221,0.277c0.335,0.235,0.533,0.589,0.585,1.058
			c0.026,0.24-0.006,0.45-0.093,0.631c-0.089,0.184-0.242,0.367-0.465,0.558c-0.167,0.149-0.293,0.269-0.377,0.349
			C110.35,135.217,110.311,135.304,110.31,135.397z"></path>
            <path fill="#B4B5B4" d="M127.132,144.526l5.987-0.659l0.238,2.179l-8.497,0.938l-1.327-12.04l2.516-0.277L127.132,144.526z"></path>
            <path fill="#B4B5B4" d="M136.504,145.7l-2.654,0.292l2.967-12.508l2.905-0.32l5.565,11.57l-2.733,0.301l-1.042-2.398l-4.447,0.488
			L136.504,145.7z M137.507,140.974l3.07-0.339l-2.022-4.599l-0.032,0.001L137.507,140.974z M141.063,148.895l-2.184,0.238
			l-0.235-2.137l2.185-0.238L141.063,148.895z"></path>
            <path fill="#B4B5B4" d="M149.235,144.299l-2.514,0.276l-1.325-12.036l2.514-0.275L149.235,144.299z"></path>
	</g>
</g>
</svg>