<svg width="70" height="76" viewBox="0 0 70 76" fill="none" xmlns="http://www.w3.org/2000/svg">
<path d="M0 10C0 4.47715 4.47715 0 10 0H60C65.5229 0 70 4.47715 70 10V66C70 71.5229 65.5229 76 60 76H10C4.47715 76 0 71.5229 0 66V10Z" fill="#E74040"/>
<path d="M35 53.027L23 43.6936L25.16 42.0136L34.9867 49.6536L44.8267 42.0016L47 43.6936L35 53.027ZM35 47.3336L23 38.0003L25.16 36.3203L34.9867 43.9603L44.8267 36.307L47 38.0003L35 47.3336ZM35 41.6403L25.1733 34.0003L23 32.307L35 22.9736L47 32.307L44.8133 34.0003L35 41.6403Z" fill="white"/>
</svg>